<?xml version="1.0" standalone="no"?>
<!DOCTYPE svg PUBLIC "-//W3C//DTD SVG 1.1//EN" "http://www.w3.org/Graphics/SVG/1.1/DTD/svg11.dtd" >
<svg xmlns="http://www.w3.org/2000/svg">
<metadata>
Created by FontForge 20120731 at Mon Jul 24 17:04:45 2017
 By admin
</metadata>
<defs>
<font id="iconfont" horiz-adv-x="1024" >
  <font-face 
    font-family="iconfont"
    font-weight="500"
    font-stretch="normal"
    units-per-em="1024"
    panose-1="2 0 6 3 0 0 0 0 0 0"
    ascent="896"
    descent="-128"
    x-height="792"
    bbox="0 -128 1123 896"
    underline-thickness="0"
    underline-position="0"
    unicode-range="U+0078-EDFF"
  />
<missing-glyph 
 />
    <glyph glyph-name=".notdef" 
 />
    <glyph glyph-name=".notdef" 
 />
    <glyph glyph-name=".null" horiz-adv-x="0" 
 />
    <glyph glyph-name="nonmarkingreturn" horiz-adv-x="341" 
 />
    <glyph glyph-name="x" unicode="x" horiz-adv-x="1001" 
d="M281 543q-27 -1 -53 -1h-83q-18 0 -36.5 -6t-32.5 -18.5t-23 -32t-9 -45.5v-76h912v41q0 16 -0.5 30t-0.5 18q0 13 -5 29t-17 29.5t-31.5 22.5t-49.5 9h-133v-97h-438v97zM955 310v-52q0 -23 0.5 -52t0.5 -58t-10.5 -47.5t-26 -30t-33 -16t-31.5 -4.5q-14 -1 -29.5 -0.5
t-29.5 0.5h-32l-45 128h-439l-44 -128h-29h-34q-20 0 -45 1q-25 0 -41 9.5t-25.5 23t-13.5 29.5t-4 30v167h911zM163 247q-12 0 -21 -8.5t-9 -21.5t9 -21.5t21 -8.5q13 0 22 8.5t9 21.5t-9 21.5t-22 8.5zM316 123q-8 -26 -14 -48q-5 -19 -10.5 -37t-7.5 -25t-3 -15t1 -14.5
t9.5 -10.5t21.5 -4h37h67h81h80h64h36q23 0 34 12t2 38q-5 13 -9.5 30.5t-9.5 34.5q-5 19 -11 39h-368zM336 498v228q0 11 2.5 23t10 21.5t20.5 15.5t34 6h188q31 0 51.5 -14.5t20.5 -52.5v-227h-327z" />
    <glyph glyph-name="civil18" unicode="&#xe61e;" 
d="M956 555v41q0 89 -65 151.5t-157 62.5q-42 0 -76.5 -10t-56.5 -26.5t-39.5 -36t-26 -39.5t-14 -36t-7.5 -27l-1 -10q-1 4 -2 10.5t-7 26t-15 37t-27 39t-40.5 36.5t-57.5 25.5t-77 10.5q-92 0 -157 -62.5t-65 -151.5v-41q0 -6 0.5 -17.5t8.5 -48t22.5 -75t48 -95
t78.5 -111.5t120 -121.5t169 -127.5v-1h1h1v1q93 61 167.5 127t120 122.5t78 110.5t47 96t21.5 74t8 49t0 17zM222 349l-21 26q-81 119 -69 225q7 58 44 105q109 93 207 0q29 -27 45 -56l-47 22q-134 52 -178 -28q-44 -82 19 -294z" />
    <glyph glyph-name="litigation20" unicode="&#xe613;" 
d="M234 833h73l40 -84l327 1l37 83h72v-749h31v-35h-609v35h29v749v0zM108 -61h803v85h-803v-85v0zM618 373q-11 -37 -39 -56t-70 -19q-87 0 -109 75q-41 0 -68 -20.5t-52 -57.5v-207h454v211q-57 80 -116 74v0zM509 615q-50 0 -85.5 -35t-35.5 -85t35.5 -85.5t85.5 -35.5
t85.5 35.5t35.5 85.5t-35.5 85t-85.5 35z" />
    <glyph glyph-name="question" unicode="&#xe744;" 
d="M512 896q-104 0 -199 -40.5t-163.5 -109t-109 -163.5t-40.5 -199t40.5 -199t109 -163.5t163.5 -109t199 -40.5t199 40.5t163.5 109t109 163.5t40.5 199t-40.5 199t-109 163.5t-163.5 109t-199 40.5zM512 -55q-89 0 -170.5 35t-140 93.5t-93.5 140t-35 170.5t35 170.5
t93.5 140t140 93.5t170.5 35t170.5 -35t140 -93.5t93.5 -140t35 -170.5t-35 -170.5t-93.5 -140t-140 -93.5t-170.5 -35zM466 137q0 -19 13.5 -32t32.5 -13t32.5 13t13.5 32t-13.5 32.5t-32.5 13.5t-32.5 -13.5t-13.5 -32.5zM512 676q-69 0 -116.5 -48t-47.5 -116
q0 -13 9 -21.5t21.5 -8.5t22 8.5t9.5 21.5q0 42 29 70t71.5 28t71.5 -28t29 -70q0 -58 -64 -97q-40 -24 -55.5 -56t-14.5 -58v-52q0 -13 8.5 -21.5t22.5 -8.5t22 8.5t8 21.5v53q0 38 44 63q45 28 69.5 66.5t24.5 81.5q0 69 -47.5 116t-116.5 47z" />
    <glyph glyph-name="expression" unicode="&#xe636;" 
d="M512 819q88 0 168.5 -34.5t139 -92.5t93 -139t34.5 -169t-34.5 -168.5t-93 -139t-139 -93t-168.5 -34.5t-169 34.5t-139 93t-92.5 139t-34.5 168.5t34.5 169t92.5 139t139 92.5t169 34.5zM512 871q-99 0 -189 -38.5t-155.5 -104t-104 -155.5t-38.5 -189t38.5 -189
t104 -155t155.5 -103.5t189 -38.5t189 38.5t155 103.5t103.5 155t38.5 189t-38.5 189t-103.5 155.5t-155 104t-189 38.5v0zM511 89q-80 0 -151.5 34.5t-121.5 98.5q-8 10 -6.5 23t12 21.5t23.5 7t22 -12.5q40 -52 98.5 -80t123.5 -28q66 0 125 28.5t99 81.5q8 11 21 12.5
t23.5 -6.5t12.5 -21t-6 -24q-50 -64 -122 -99.5t-153 -35.5zM539 155zM343 402q-22 0 -37.5 15.5t-15.5 37.5v70q0 21 15.5 36.5t37 15.5t37 -15.5t15.5 -36.5v-70q0 -22 -15.5 -37.5t-36.5 -15.5v0v0v0zM681 402q-21 0 -36.5 15.5t-15.5 37.5v70q0 21 15.5 36.5t37 15.5
t37 -15.5t15.5 -36.5v-70q0 -22 -15.5 -37.5t-37.5 -15.5v0v0v0z" />
    <glyph glyph-name="message" unicode="&#xe6c7;" 
d="M511 -27q-26 0 -40 21l-79 119h-266q-26 0 -43.5 18t-17.5 43v488q0 25 17.5 43t43.5 18h770q25 0 43 -18t18 -43v-488q0 -25 -18 -43t-43 -18h-266l-79 -119q-14 -21 -40 -21v0v0zM126 682q-9 0 -15 -6t-6 -14v-488q0 -9 6 -15t15 -6h288l90 -136q3 -4 7 -4t6 4l91 136
h288q8 0 14 6t6 15v488q0 8 -6 14t-14 6h-770zM249 491q30 0 51 -21t21 -51t-21 -51t-51 -21t-51 21t-21 51t21 51t51 21v0zM513 491q30 0 51 -21t21 -51t-21 -51t-51 -21t-51 21t-21 51t21 51t51 21v0zM777 491q30 0 51.5 -21t21.5 -51t-21.5 -51t-51 -21t-51 21t-21.5 51
t21.5 51t50.5 21v0zM734 480z" />
    <glyph glyph-name="marriage3" unicode="&#xe668;" horiz-adv-x="1025" 
d="M709 848q39 0 66 -27t27 -65.5t-27 -65.5t-65.5 -27t-65.5 27t-27 65.5t27 65.5t65 27v0zM263 774q34 1 58.5 -24t24.5 -59q0 -35 -24.5 -57.5t-61.5 -22.5q-17 0 -30.5 5t-23.5 12t-11 7q-29 12 -58 39l20 -4l-1 1q-24 14 -38 33q-3 4 -1 4q1 0 4 -1q3 -2 11 -7.5
t13.5 -7.5t12.5 -2q3 0 -13 13q-11 10 -14 14t-1 4t13 -6q27 -14 37 -14q4 29 25.5 50.5t57.5 22.5v0zM1 281q-6 72 29 141t100 113.5t140 45.5q-107 -26 -148 -91q113 109 271 74q-60 -1 -109 -15t-80 -37.5t-51 -48.5t-31 -53q69 84 146 119.5t172 9.5q-130 -9 -200.5 -76
t-65.5 -166q6 -82 64.5 -128.5t155.5 -45.5q177 3 254 209q6 -79 -32.5 -152.5t-114 -121.5t-167.5 -53q-146 0 -235 75t-98 201v0v0zM453 174q64 -11 109 33q49 50 58 87q-77 -81 -167 -120v0zM370 251h66q23 64 62.5 109t82.5 63t85.5 19.5t76.5 -16t49 -47.5
q25 -74 -0.5 -151t-93 -143.5t-175 -121t-240.5 -86.5q119 1 309 74q-22 -20 -59.5 -36t-62.5 -23t-77 -20q100 5 183 30.5t196 93.5q-68 -52 -160 -97q90 33 162 75t129 97t88 126.5t32 154.5q-1 64 -26.5 117.5t-66.5 87t-94.5 51t-110.5 14.5t-115.5 -28t-107.5 -71
q4 23 52.5 53.5t113.5 55.5q-72 -10 -144.5 -55.5t-119 -112.5t-39.5 -131q17 -17 18.5 -29.5t-13.5 -52.5z" />
    <glyph glyph-name="rocket" unicode="&#xe682;" 
d="M691 435q-53 0 -90.5 37.5t-37.5 90.5t37.5 90.5t90.5 37.5t90.5 -37.5t37.5 -90.5t-37.5 -90.5t-90.5 -37.5zM691 640q-32 0 -54.5 -22.5t-22.5 -54.5t22.5 -54.5t54.5 -22.5t54.5 22.5t22.5 54.5t-22.5 54.5t-54.5 22.5zM26 -128q-11 0 -18 8q-12 11 -6 26
q118 327 246 327q42 0 77 -36q45 -45 33 -99q-25 -116 -324 -224q-4 -2 -8 -2v0zM248 182q-39 0 -86 -65q-46 -62 -92 -175q103 41 164 83q66 46 75 84q5 27 -20 52q-20 21 -41 21v0zM998 896q-200 0 -352 -67q-125 -55 -211 -153q-15 -18 -29 -36q-67 -5 -135 -53
q-57 -40 -114 -110q-62 -77 -103 -158q-10 -20 8 -32q7 -5 15 -5q10 0 18 7q24 24 66 48q74 41 152 46q18 -46 85 -113t113 -85q-5 -78 -46 -152q-24 -42 -48 -66q-15 -15 -3 -33q8 -11 21 -11q6 0 12 3q81 41 158 103q70 57 110 114q48 68 52 135q19 14 37 29
q98 86 153 211q67 152 67 352v26h-26v0zM159 394q105 152 208 186q-45 -77 -57 -146q-78 -4 -151 -40zM522 31q36 74 40 151q69 12 146 57q-34 -103 -186 -208v0zM770 346q-48 -43 -103.5 -71t-85.5 -36.5t-43 -8.5q-11 0 -39 21q-31 21 -65 55t-55 65q-21 28 -21 39
q0 13 8.5 43t36.5 85.5t71 103.5q84 96 211 147.5t288 54.5q-4 -160 -55.5 -287t-147.5 -211v0z" />
    <glyph glyph-name="infringement5" unicode="&#xe614;" 
d="M511 -127l-25 14q-198 110 -302 228q-130 148 -130 324v2l29 398l425 57h3h1h3l425 -57l28 -398v-2q0 -176 -130 -324q-103 -118 -302 -228zM157 437q0 -124 87 -233t267 -214q181 105 267.5 214t87.5 233l-22 312l-333 44l-332 -44zM331 270v359h-74v57h74v43h78v-43h74
v-57h-74v-359h-78zM260 290v318h58v-318h-58zM421 290v318h58v-318h-58zM587 639q12 -77 42 -136q29 63 40 157h-176v54h273q-9 -177 -82 -291q31 -33 77 -69v-81q-76 28 -132 83q-55 -54 -131 -83v81q49 36 78 67q-58 90 -76 218h87z" />
    <glyph glyph-name="demolition10" unicode="&#xe66c;" 
d="M859 353q13 -8 73 -53q28 -23 27.5 -46t-27.5 -66q-19 -31 -45 -50.5t-76 -45.5q-26 -13 -45 -15.5t-58 -0.5q-186 8 -346.5 45.5t-265.5 105.5q-51 33 -20 70q2 2 6 7q0 -12 1 -24l1 -18l15 -8q112 -61 265 -85t271 2q81 18 151 78h-6q-12 0 -23 7q-9 0 -16 1
q-75 -54 -144 -60l-9 95l-72 3l-11 -101q-74 1 -152 14l-4 100l-66 8l-16 -90q-95 23 -155 56q-4 99 26 180t82.5 130.5t121.5 76t139 25t138 -30.5t117 -83q-65 -16 -105 -71t-24 -135q1 6 3 15.5t12 34.5t24.5 44t44 34t66.5 14q11 7 23 7q34 0 53 -48q14 -38 14 -89.5
t-14 -88.5l-1 -1q12 14 22 29q9 14 5 28v0zM771 460q-12 -30 -12 -74t12 -74q7 -20 9.5 -20t9.5 20q12 30 12 74t-12 74q-7 19 -9.5 19t-9.5 -19z" />
    <glyph glyph-name="qr" unicode="&#xe662;" 
d="M761 -57h-91q-26 0 -29 26q-2 10 5.5 19.5t17.5 10.5h10h167q11 0 19 2q22 6 31 31q6 14 6 36v156q0 20 15 28q14 7 27 -0.5t14 -22.5v-9v-77.5v-77.5q0 -43 -19 -74q-31 -48 -89 -48h-84zM71 142v85q0 11 7 19t18 9q11 2 20.5 -5.5t10.5 -18.5v-9v-156q0 -42 38 -61
q12 -6 31 -6h78h78q16 0 24 -9q12 -14 5 -30q-6 -16 -24 -17h-5h-158q-71 0 -107 61q-16 25 -16 55v83v0zM762 825h92q47 -1 75 -34q19 -22 23 -55q1 -9 1 -23q1 -64 0 -156q0 -24 -21 -29q-13 -4 -23.5 4t-11.5 20v8v154q0 11 -3 24q-5 23 -28 28q-13 3 -24 3h-171
q-24 0 -29 20q-4 14 4 25t21 11h95v0zM269 825h85q26 0 29 -25q2 -11 -5.5 -20.5t-19.5 -10.5h-8h-155q-16 0 -32 -5q-36 -11 -36 -50v-156q0 -16 -10 -24q-13 -12 -29 -5t-17 24v5v158q-1 47 32 78q29 26 69 30q10 1 43 1h54zM434 398h346q15 0 16 -12q3 -13 -10 -15
q-3 -1 -7 -1h-691h-6q-12 3 -11 15q0 12 12 13h6h345zM890 398h49q14 0 14 -14q1 -13 -13 -14h-4h-93h-3q-15 1 -14 14q0 14 15 14h49z" />
    <glyph glyph-name="claims14" unicode="&#xe60e;" 
d="M679 404q-9 -9 -21 -9h-292q-13 0 -21.5 9t-8.5 21t8.5 20.5t21.5 8.5h292q12 0 21 -8.5t9 -20.5t-9 -21zM679 290q-9 -9 -21 -9h-292q-13 0 -21.5 9t-8.5 21t8.5 20.5t21.5 8.5h292q12 0 21 -8.5t9 -20.5t-9 -21zM542.5 395q-12.5 0 -20.5 9l-207 207q-9 8 -9 20.5
t8.5 21t21 8.5t21.5 -8l206 -207q9 -9 9 -21t-8.5 -21t-21 -9zM718 631.5q0 -12.5 -9 -20.5l-207 -207q-8 -9 -20.5 -9t-21 9t-8.5 21t9 21l206 206q9 9 21.5 9t21 -8.5t8.5 -21zM533 448.5q9 -8.5 9 -21.5v-292q0 -12 -9 -21t-21 -9t-21 9t-9 21v292q0 13 9 21.5t21 8.5
t21 -8.5zM985 453v345q0 14 -10 24t-24.5 10t-24.5 -10t-10 -24v-158q-66 104 -174.5 165.5t-235.5 61.5q-165 0 -295 -100.5t-172 -255.5v0v-1v-5q0 -14 10 -24t24 -10q13 0 22.5 8t11.5 20q39 131 149 215t250 84q153 0 269 -99t141 -248v0q0 -14 10 -24t24.5 -10t24.5 10
t10 24h1q0 1 -0.5 1.5zM39 321v-345q0 -14 10 -24t24.5 -10t24.5 10t10 24v158q66 -104 174.5 -165.5t235.5 -61.5q165 0 295 100.5t173 255.5h-0.5t-0.5 1q1 3 1 5q0 14 -10.5 24t-24.5 10q-13 0 -22.5 -8t-11.5 -20q-38 -131 -148.5 -215t-250.5 -84q-153 0 -268.5 99
t-140.5 248h-1q0 14 -10 24t-24.5 10t-24.5 -10t-10 -24v0v-1.5v-0.5z" />
    <glyph glyph-name="classification" unicode="&#xe637;" 
d="M943 441h-325q-20 0 -34.5 14.5t-14.5 34.5v325q0 20 14.5 34.5t34.5 14.5h325q20 0 34.5 -14.5t14.5 -34.5v-325q0 -21 -14.5 -35t-34.5 -14zM618 822q-7 0 -7 -7v-325q0 -7 7 -7h325q7 0 7 7v325q0 7 -7 7h-325v0zM406 441h-325q-20 0 -34.5 14.5t-14.5 34.5v325
q0 20 14.5 34.5t34.5 14.5h325q21 0 35 -14.5t14 -34.5v-325q0 -20 -14.5 -34.5t-34.5 -14.5zM81 822q-7 0 -7 -7v-325q0 -7 7 -7h325q7 0 7 7v325q0 7 -7 7h-325v0zM406 -96h-325q-20 0 -34.5 14.5t-14.5 34.5v325q0 20 14.5 34.5t34.5 14.5h325q21 0 35 -14.5t14 -34.5
v-213q0 -9 -6 -15t-14.5 -6t-15 6t-6.5 15v213q0 7 -7 7h-325q-7 0 -7 -7v-325q0 -7 7 -7h325q7 0 7 6v28q0 8 6.5 14.5t15 6.5t14.5 -6.5t6 -14.5v-28q0 -20 -14.5 -34t-34.5 -14zM760.5 -30q-70.5 0 -120 49.5t-49.5 120.5t49.5 120.5t120 49.5t120.5 -49.5t50 -120.5
t-50 -120.5t-120.5 -49.5zM760.5 269q-53.5 0 -91 -38t-37.5 -91t38 -91t91 -38t90.5 38t37.5 91t-37.5 91t-91 38zM908 23l63 -64l-29 -30l-64 64z" />
    <glyph glyph-name="labor4" unicode="&#xe600;" 
d="M157 429q0 27 29 57.5t60 30.5h322l-257 -436q4 -1 11 -1.5t29 -0.5t44 4t52 15.5t56.5 30.5t54.5 52.5t49 78t37 110.5t21 147h129q35 0 53.5 -31t18.5 -73v-477h-96v364q0 27 -40 27t-40 -27v-364h-436v128h-8q-39 0 -64 19.5t-25 55.5v290zM319 225v114h-65v-114h65z
M520 542q-59 0 -102 43t-43 102t43 102t102 43t102 -43t43 -102t-43 -102t-102 -43z" />
    <glyph glyph-name="PropertyDispute13" unicode="&#xe62d;" 
d="M454 734q-21 -17 -44 -42q-20 -22 -44.5 -55t-48.5 -79q-25 -46 -38 -89t-17 -77q-6 -39 -6 -74q-10 8 -21 14q-9 5 -22 9.5t-26 6.5q-29 4 -51.5 -1.5t-37.5 -13.5q-14 -10 -22.5 -11.5t-8.5 13.5q0 32 9.5 65t23 62.5t28 52t23.5 33.5q43 60 95.5 95.5t98.5 55.5
q54 24 109 35zM569 734q55 -10 109 -34q45 -20 98.5 -56t96.5 -95q9 -11 23 -33.5t27.5 -52t23.5 -62.5t10 -65q0 -19 -9 -17t-22 14q-11 8 -32 14t-52 3q-14 -2 -27.5 -7t-23.5 -10q-12 -7 -23 -14q-1 36 -7 74q-5 34 -17.5 76.5t-37.5 89.5q-25 46 -49 78.5t-44 54.5
q-23 25 -44 42v0zM511 831q19 0 29 -25q3 -8 8 -20.5t10 -23.5q5 -14 11 -28q-11 7 -22 12q-10 5 -19.5 9.5t-16.5 4.5t-16.5 -4t-18.5 -9q-11 -5 -22 -13q5 14 10 29q5 11 9.5 23.5t7.5 20.5q6 13 14 18.5t16 5.5v0zM486 305q2 0 8.5 8.5t9.5 8.5q18 3 20 2.5t7.5 -1.5
t9 -2t3.5 -3v-284q0 -39 -20 -69q-18 -28 -71 -28q-26 0 -43 9q-18 8 -28 20t-14 26t-4 25q0 16 9.5 23.5t15.5 7.5q8 0 18 -6.5t10 -18.5q1 -17 8.5 -29t27.5 -12t26 17q1 4 1 44v262h6zM511 734q2 0 5.5 -0.5t12 -7.5t23.5 -23.5t40 -48t43 -62.5t31 -59.5t20.5 -51.5
t11.5 -38q3 -11 8 -28t9 -35t5.5 -33t-1.5 -20q-11 -13 -22.5 -7t-33.5 19q-12 7 -30.5 13t-39 10t-41.5 6.5t-39 2.5q-36 1 -75.5 -7.5t-64.5 -19.5q-25 -10 -33.5 -18.5t-19.5 -6.5q-13 4 -12.5 30.5t19.5 91.5q12 43 25 74.5t26.5 56t26.5 43.5t25 35.5t25 31.5t25 26.5
t20 18.5t11 7v0z" />
    <glyph glyph-name="ConsumerRights8" unicode="&#xe635;" 
d="M864 338q41 82 41 171q0 105 -52.5 194t-143 141t-197.5 52t-197.5 -52t-143 -141t-52.5 -194q0 -89 41 -171l-160 -272q101 -20 204 -41l136 -152l147 250q20 -1 25 -1t25 1l147 -250l136 152l204 41zM512 230q-119 0 -203 84t-84 203t84 203t203 84t203 -84t84 -203
t-84 -203t-203 -84z" />
    <glyph glyph-name="right" unicode="&#xe621;" 
d="M661 370l-421 -406l60 -58l421 406v0l60 58v0v0l-60 58v0l-419 404l-60 -58z" />
    <glyph glyph-name="neighborhood9" unicode="&#xe665;" 
d="M639 -36q0 47 -15 117.5t-39 114.5q-38 72 -106 108t-146 36q-158 0 -233 -135q-25 -46 -41.5 -119t-16.5 -122h597zM352 692q-63 0 -108 -43.5t-45 -105t45 -105t108 -43.5t107.5 43.5t44.5 105t-44.5 105t-107.5 43.5zM998 -35q0 131 -89 268q-32 49 -77.5 69.5
t-108.5 20.5q-47 0 -77.5 -10t-62.5 -38q24 -28 33.5 -45t28.5 -66q38 -95 38 -199h315v0zM716 677q-63 0 -107.5 -43.5t-44.5 -105t44.5 -105t107.5 -43.5t108 43.5t45 105t-45 105t-108 43.5z" />
    <glyph glyph-name="peoplePic" unicode="&#xe611;" horiz-adv-x="1123" 
d="M296 654q0 -48 18 -92q19 -44 52.5 -78t78 -52.5t92.5 -18.5t92 19q44 18 78 52t52 78t18 92t-18 92t-52 78t-78.5 52.5t-92 18.5t-92 -18.5t-78 -52.5t-52.5 -78q-18 -44 -18 -92v0zM296 654zM47 -127q0 117 69 216.5t187.5 157t258.5 57.5t259 -57.5t187.5 -157
t68.5 -216.5h-1030zM0 -128h1123h-1123v0zM0 -128z" />
    <glyph glyph-name="exclamation" unicode="&#xec66;" 
d="M512 824q90 0 171 -34q79 -34 140 -95t94 -140q35 -81 35 -171t-34 -171q-34 -79 -95 -140t-140 -94q-81 -35 -171 -35t-171 34q-79 34 -140 95t-94 140q-35 81 -35 171t34 171q34 79 95 140t140 94q81 35 171 35zM512 896q-139 0 -257 -68.5t-186.5 -186.5t-68.5 -257
t68.5 -257t186.5 -186.5t257 -68.5t257 68.5t186.5 186.5t68.5 257t-68.5 257t-186.5 186.5t-257 68.5v0zM512 256q-17 0 -28.5 11.5t-11.5 28.5v369q0 17 11.5 28.5t28.5 11.5t28.5 -11.5t11.5 -28.5v-369q0 -17 -11.5 -28.5t-28.5 -11.5zM512 147zM467 147q0 -19 13 -32
t32 -13t32 13t13 32t-13 32t-32 13t-32 -13t-13 -32z" />
    <glyph glyph-name="IntellectualProperty17" unicode="&#xe607;" horiz-adv-x="1038" 
d="M347 587l78 -43l353 134l-80 28zM795 454h2h3q18 0 38 -4q-5 9 -10 16zM704 335v-99q0 -26 24 -49t48 -33l24 -10q4 2 10 4.5t22.5 11.5t29.5 19t23 25.5t10 31.5v99l-95 34zM347 587l78 -43l353 134l-80 28zM886 462q-7 15 -16 27q49 75 25 149q-12 37 -36 60l-4 4
l-391 137l-464 -118l421 -230l416 158q8 -13 12 -26q17 -51 -17 -105l-406 -146l-378 211q-6 3 -12 3q-14 0 -21 -12q-5 -9 -2.5 -18.5t11.5 -14.5l397 -222l202 73q-46 -60 -46 -135v-15l-151 -51l-378 211q-6 4 -12 4q-14 0 -21 -13q-5 -8 -2.5 -18t11.5 -14l397 -223
l165 56q20 -67 75 -111l-233 -76l-380 211q-6 3 -12 3q-14 0 -21 -12q-5 -9 -2 -18.5t11 -14.5l399 -221l293 96q40 -17 84 -17q92 0 157 65.5t65 157.5q0 68 -37.5 124t-98.5 81zM425 544l-78 43l351 119l80 -28zM800 73q-76 0 -130 54t-54 130t54 130t130 54t130 -54
t54 -130t-54 -130t-130 -54z" />
    <glyph glyph-name="legal21" unicode="&#xe61a;" 
d="M1019 296q0 7 -3 12l-136 277q38 21 38 64q0 30 -21.5 51.5t-51.5 21.5h-249v77q0 34 -24 58t-57.5 24t-57.5 -24t-24 -58v-77h-249q-30 0 -51.5 -21.5t-21.5 -51.5q0 -21 10.5 -38.5t28.5 -26.5l-141 -277v-1v0q0 -1 -1 -1q0 -2 -1 -4v-1v-3v-1v-0.5v-0.5v0
q0 -72 51 -122.5t123 -50.5t122.5 50.5t51.5 122.5v0.5v0.5q0 7 -3 12l-132 268h213v-521h-39q-34 0 -58 -24t-24 -58t24 -58t58 -24h241q34 0 58 24t24 58t-24 58t-58 24h-39v521h214l-136 -269q0 -1 -0.5 -1h-0.5v-1q-1 -2 -1 -4v-1q-1 -1 -1 -3v-1v-0.5v-0.5v0
q1 -72 51.5 -122.5t122.5 -50.5t123 50.5t51 122.5v0.5v0.5zM180.5 168q-46.5 0 -81.5 30t-44 75h251q-8 -45 -43.5 -75t-82 -30zM68 319l115 227l112 -227h-227zM670 -27q0 -15 -10.5 -25t-24.5 -10h-241q-15 0 -25 10t-10 25t10 25t25 10h241q14 0 24.5 -10t10.5 -25z
M573 622q-10 0 -16.5 -7t-6.5 -16v-544h-71v544q0 9 -6.5 16t-16.5 7h-272q-11 0 -19 8t-8 19t8 19t19 8h272q10 0 16.5 6.5t6.5 16.5v100q0 15 10.5 25t25 10t25 -10t10.5 -25v-100q0 -10 6.5 -16.5t16.5 -6.5h272q11 0 19 -8t8 -19t-8 -19t-19 -8h-272zM847 546l112 -227
h-227zM845.5 168q-46.5 0 -82 30t-43.5 75h251q-9 -45 -44 -75t-81.5 -30z" />
    <glyph glyph-name="close" unicode="&#xe63c;" 
d="M575 384l298 299q13 13 13 31t-13 31t-31 13t-31 -13l-299 -298l-299 298q-13 13 -31 13t-31 -13t-13 -31t13 -31l298 -299l-298 -299q-13 -13 -13 -31t13 -31t31 -13t31 13l299 298l299 -298q13 -13 31 -13t31 13t13 31t-13 31z" />
    <glyph glyph-name="diedaisanicon" unicode="&#xe695;" 
d="M672 640h-575q-40 0 -68 -28t-28 -68v-385q0 -40 28 -68t68 -28h32v-70q5 -22 21 -38t44 -20.5t65 21.5l120 107h293q39 0 67.5 28t28.5 68v385q0 40 -28.5 68t-67.5 28zM704 193q0 -26 -19 -45t-45 -19h-209h-75l-137 -125q-24 -8 -27 28v48v49h-29h-34q-27 0 -45.5 19
t-18.5 45v320q0 26 18.5 45t45.5 19h511q26 0 45 -19t19 -45v-320zM927 896h-575q-39 0 -67.5 -28t-28.5 -68v-96h64v64q0 27 19 45.5t45 18.5h511q27 0 45.5 -19t18.5 -45v-319q0 -26 -18.5 -45t-45.5 -19h-64v-64h96q40 0 68 28t28 68v383q0 40 -28 68t-68 28zM544 448
h-320q-13 0 -22 -9.5t-9 -23t9 -23t22 -9.5h320q13 0 22.5 9.5t9.5 23t-9.5 23t-22.5 9.5zM480 319h-256q-13 0 -22 -9t-9 -22.5t9 -23t22 -9.5h256q13 0 22.5 9.5t9.5 23t-9.5 22.5t-22.5 9z" />
    <glyph glyph-name="consultant" unicode="&#xe66a;" 
d="M872 792h-592q-20 0 -34 -14t-14 -34v-38q0 -10 7 -17t17 -7t17 7t7 17v14q0 10 7 17t17 7h544q10 0 17 -7t7 -17v-416q0 -10 -7 -17t-17 -7h-14q-10 0 -17 -7t-7 -17t7 -17t17 -7h38q20 0 34 14t14 34v464q0 20 -14 34t-34 14zM792 616v-464q0 -20 -14 -34t-34 -14h-165
q-21 0 -33 -14l-64 -100q-15 -14 -34.5 -14t-33.5 14l-64 100q-14 14 -33 14h-165q-20 0 -34 14t-14 34v464q0 20 14 34t34 14h592q20 0 34 -14.5t14 -33.5zM744 592q0 10 -7 17t-17 7h-544q-10 0 -17 -7t-7 -17v-416q0 -10 7 -17t17 -7h170q8 0 17 -6l67 -104q8 -8 17.5 -8
t16.5 8l67 104q7 6 18 6h171q10 0 17 7t7 17v416zM640 451.5q0 -9.5 -7 -17t-17 -7.5h-336q-10 0 -17 7.5t-7 17t7 16.5t17 7h336q10 0 17 -7t7 -16.5zM584 338h-272q-10 0 -17 -7.5t-7 -16.5v0q0 -10 7 -17t17 -7h272q10 0 17 7t7 17v0q0 9 -7 16.5t-17 7.5z" />
    <glyph glyph-name="down" unicode="&#xe61d;" 
d="M513 157q-8 0 -14 5l-422 423q-5 5 -5 13t5.5 13.5t13 5.5t13.5 -6l422 -422q6 -6 6 -13.5t-5.5 -13t-13.5 -5.5zM513.5 156q-7.5 0 -13 5.5t-5.5 13t5 13.5l422 422q6 6 14 6t13.5 -5.5t5.5 -13.5t-6 -14l-422 -422q-6 -5 -13.5 -5z" />
    <glyph glyph-name="TrafficAccident7" unicode="&#xe664;" 
d="M822 468h-11q-1 5 -3 10l-4 10q-3 14 -25 58t-41 67q-65 77 -227 77q-168 0 -227 -77q-20 -22 -41 -65.5t-25 -59.5q-1 -4 -3 -8t-3 -6.5t-1 -5.5h-10q-40 0 -57 -22t-17 -49q0 -8 6.5 -15t14.5 -9l58 -7q-2 -13 -11.5 -51.5t-14 -67.5t-4.5 -56v-73q0 -12 7 -24t17 -12
h57q10 0 17 12t7 24v28h471v-25q0 -12 7.5 -26t16.5 -14h48q10 0 17.5 14t7.5 26v74q0 26 -5 55t-14 68t-12 51l56 7q8 0 14.5 7t6.5 18q0 24 -17 45.5t-56 21.5v0zM271 239q-15 0 -25.5 10t-10.5 25t10 25.5t26 10.5q14 0 24.5 -10t10.5 -26t-9.5 -25.5t-25.5 -9.5v0z
M246 405q27 127 73 174q42 48 192 48t192 -48q46 -47 73 -174q-3 -2 -23.5 -10.5t-31 -12t-32.5 -11.5t-39.5 -12.5t-41 -9t-48 -7t-49.5 -2.5t-49.5 2.5t-48 7t-41 9t-39.5 12.5t-32.5 11.5t-30.5 12t-24 10.5v0zM751 240q-13 0 -23.5 9.5t-10.5 24.5q0 14 9.5 24.5
t24.5 10.5q14 0 24.5 -9.5t10.5 -25t-10.5 -25t-24.5 -9.5v0zM751 240z" />
    <glyph glyph-name="contract6" unicode="&#xe619;" 
d="M887 39v629h-2v7h-1v5h-2q0 1 -0.5 3t-1.5 3h-1v4l-5 3v3q-4 3 -7 5v2h-4l-1 3q-14 9 -69 9v72h-2v7h-1v3h-2v5l-3 2v3q-1 0 -2 0.5t-2 1.5v3l-1.5 1l-1.5 1q-3 3 -5 6h-3l-2 4q-7 2 -15 5v1h-542q-38 0 -48 -6q-3 -4 -4 -5h-3l-3 -4v-3q-1 0 -3.5 -2t-3.5 -3v-3h-2
q0 -1 -0.5 -3.5t-0.5 -3.5h-2v-5h-2q-2 -6 -2.5 -16.5t0.5 -25.5t1 -18v-629h1v-7h2v-5h2q0 -1 0.5 -3t0.5 -4h2v-3q3 -2 5 -3v-4q2 -1 7 -5v-1h3q1 -3 2 -4h3v-1q3 -1 7 -2v-2q5 -2 16.5 -3t21 -1t24.5 0.5t20 0.5v-69h2q0 -1 0.5 -4.5t0.5 -5.5h2v-5q1 -1 3 -2v-3h2v-3
q3 -2 5 -4v-3q4 -3 5 -3v-2h3q1 -2 4 -5q2 -1 7 -2.5t8 -2.5v-2h516q39 0 49 7q1 2 3 5h4l3 3v4q1 1 3.5 2.5t3.5 2.5v3h1q1 1 1.5 3.5t0.5 3.5h2v5h1q2 6 2.5 16t0 25t-0.5 19zM406 703q1 3 4 5t7.5 3t9.5 1.5t11.5 0.5h10.5h11h10h127q44 0 50 -2h10v-1h5v-2h2q2 -1 3 -2
t1.5 -4t0.5 -4h2q-1 -8 -2 -15q-1 -1 -2 -2.5t-1 -2.5h-2v-3q-1 -1 -3 -2t-4 -3q-24 -3 -53 -3.5t-69 0.5t-55 1q-3 0 -11 -0.5t-15 -0.5h-14.5t-13 1t-7.5 3q-3 1 -4.5 2t-3 5t-2.5 5h-2v5h-1v15zM243 537l1.5 0.5t2.5 1.5v3q1 1 5 2v1h3v2h8v2h282q8 0 30.5 0.5t36 0.5
t30 -2t25.5 -6q1 -2 1.5 -5t1 -4t0.5 -3t-0.5 -4t-2.5 -6q0 -2 0.5 -2.5t-1.5 -2.5q-3 -5 -10 -8t-17 -3.5t-18 -0.5t-21 0.5t-18 0.5h-247q-5 0 -19.5 -1t-24 -0.5t-20.5 1.5t-17.5 5t-8.5 11q-2 2 -2.5 8t0.5 9zM664 381v-1q0 -1 2 -2t3 -2q1 -18 -2 -23h-1v-4h-2
q-3 -3 -5 -6q-1 -1 -4 -1.5t-4 -0.5v-2h-138q-220 0 -255 2q0 1 -6 5.5t-7 9.5h-2q-1 2 -0.5 9t0.5 8h2q0 2 1 3.5t2 2t3 1t4 1.5v2h7v2h362q33 0 37 -2v-2h3zM290 175q-23 1 -35 2q-1 0 -5.5 3t-6.5 5v15h2v5h2v4h1q7 7 7 8q17 3 89 3h317v-1q0 -1 2.5 -1.5t3.5 -0.5
q1 -1 1.5 -4t0.5 -4h2l-2 -16q-2 -1 -2.5 -3t-1 -3t-3.5 -3.5t-5 -5.5q-18 -3 -107 -3h-260zM838 -11h-534v67h419q37 0 47 7q0 1 1.5 2.5t1.5 2.5q2 2 6 5.5t6 4.5v3h1q1 1 1.5 3.5t0.5 3.5h2v5h1v7h2v566h45v-677z" />
    <glyph glyph-name="economic16" unicode="&#xe669;" 
d="M867 117v-141q0 -8 -9 -30q-2 -3 -11 -3q-29 -1 -117 -1h-22h-25q-8 0 -12 8q-8 14 -8 38v186q0 32 -32 32q-8 1 -28 0.5t-27 -0.5q-15 1 -21 5.5t-9 19.5q-19 88 -84 148q-10 9 -48 37q-10 7 -10.5 12.5t8.5 13.5q7 6 50.5 43.5t66.5 57.5q21 18 42 0q16 -14 45 -40
t38 -34q11 -9 33 -28t33 -29q63 -55 99 -87q29 -26 37 -36q10 -14 11 -32v-140v0v0v0zM867 117zM278 -58h-18q-14 -2 -31.5 2.5t-24 7.5t-28.5 14q-49 24 -91 84q-3 5 -6.5 12t-7 16t-6.5 13q-1 4 -5 11t-6 10q0 1 -2 12q-1 2 -2.5 10.5t-2 11.5t-2 10.5t-1.5 11.5v11t1 13
t3 14t5 17q1 3 4 8.5t4 7.5q1 3 8 19.5t11 25.5q33 63 96 94q64 31 127 23q13 -2 68 -20q30 -10 62 -42q44 -42 63 -102q12 -40 7 -88q-6 -74 -54 -127q-24 -26 -40 -38q-3 -3 -51 -28q-18 -10 -20 -11q-4 -2 -9 -2h-51v-1v0v0zM378 100q-1 14 -1 15q-9 46 -68 73
q-49 23 -62 31q-17 12 -16.5 28.5t16.5 30.5q14 11 43 12.5t44 -6.5q17 -10 23.5 -7.5t13.5 20.5q0 1 0.5 2t1.5 2q6 17 -10 23q-21 9 -32 10q-17 1 -25 15q-7 12 -22 11.5t-23 -12.5q-6 -10 -14 -15q-4 -3 -16.5 -9.5t-18.5 -11.5q-31 -22 -33 -50q-4 -44 11 -63
q10 -13 25.5 -24t27 -17t31.5 -15q22 -10 32 -17q23 -17 18 -36q-7 -27 -31 -34q-46 -14 -84 11q-3 1 -7 1t-5 -2q-8 -9 -13 -23q-7 -17 11 -23q19 -6 37 -9q23 -3 33 -19q14 -21 26 3q7 14 22 20q33 12 49 32t16 53v0v0zM378 100zM875 554v-52q-1 -10 3.5 -19t8 -12
t13.5 -12q9 -8 26.5 -24.5t31.5 -28.5t28 -23q16 -13 14 -38v-4q6 -23 -23 -37q-26 -13 -47 6q-1 0 -76 66q-15 13 -53.5 46.5t-59.5 52.5q-34 29 -100 88q-10 9 -36 32t-40.5 35.5t-28.5 0.5q-36 -31 -65 -56q-89 -78 -130 -115q-15 -14 -35 -10q-32 5 -75 -3q-3 0 -10 -2
t-8 -3q-11 -3 -14 -3q-6 0 -10 5q-2 3 3 9q6 8 14 15q14 12 50.5 42.5t55.5 47.5q27 23 98 85q65 57 93 82q5 4 12.5 12.5t9 10t5.5 2.5q1 1 2 1h2q37 4 61 -22q11 -12 24.5 -24t31 -26t26.5 -22q8 -8 24 -22.5t24 -21.5q7 -6 11 -5q5 2 7 10q3 18 20 20q8 1 33 2h48
q17 0 24.5 -8t7.5 -25v-53h-1v0v0zM875 554z" />
    <glyph glyph-name="search" unicode="&#xe7d1;" 
d="M410 128q130 0 228 84l278 -278q10 -10 23.5 -10t23 9.5t9.5 23t-10 23.5l-278 278q84 100 84 228q0 98 -48 180.5t-130.5 130t-179.5 47.5t-179.5 -48t-130.5 -130.5t-48 -179.5t48 -179.5t130.5 -130.5t179.5 -48zM410 779q121 0 207 -86t86 -207t-86 -207t-207.5 -86
t-207 86t-85.5 207t86 207t207 86z" />
    <glyph glyph-name="company15" unicode="&#xe61f;" 
d="M64 833h445v-897h-445v897zM116 611h114v113q-83 0 -102 -1q-3 0 -7 -5t-4 -9q-1 -16 -1 -98zM344 609h99q4 1 8.5 6.5t5.5 9.5q2 44 -1 82q0 4 -5.5 10t-9.5 6q-15 1 -97 1v-115zM232 160q0 81 -1 95q-1 5 -7 11t-11 6q-34 2 -79 0q-5 0 -11 -4.5t-6 -7.5
q-1 -18 -1 -100h116zM345 273v-112h112q0 80 -1 95q0 4 -5.5 10t-10.5 6q-14 1 -95 1zM230 498q-83 0 -102 -1q-3 0 -7 -4.5t-4 -7.5q-1 -18 -1 -99h114v112zM457 498q-83 0 -100 -1q-3 0 -8 -3.5t-5 -5.5q-1 -21 -1 -104q82 0 95 1q5 0 11.5 5.5t6.5 10.5q1 14 1 97z
M679 158v-222h-106v500h387v-500h-107v222h-174zM571 500v50h389v-50h-389z" />
    <glyph glyph-name="left" unicode="&#xedff;" 
d="M724 0q-15 0 -27 10l-424 341q-16 13 -16 34t16 34l422 339q14 11 32 9t29.5 -16t9.5 -32t-16 -29l-380 -305l382 -307q14 -11 16 -29t-10 -32q-13 -17 -34 -17z" />
    <glyph glyph-name="CriminalCase2" unicode="&#xe610;" 
d="M958 632l-3 24l-25 1q-4 0 -11 1t-23 7.5t-29 17t-25 32.5t-15 51l-2 17l-17 6q-289 107 -297 107h-9l-4 -3q-79 -29 -282 -104l-17 -6l-2 -17q-3 -29 -14.5 -50t-24 -32t-28 -17.5t-23.5 -8t-13 -1.5l-25 -1l-3 -24q0 -7 -1 -21.5t-1 -54.5t4 -81.5t15.5 -99t30 -110.5
t51.5 -112t76.5 -108.5t108.5 -95t143 -75.5l5 -2h28l5 2q78 30 143 75.5t108.5 95t76.5 108.5t51.5 112t30 110.5t15.5 99t4 81.5t-1 54.5t-1 21.5v0zM515 -71h-6q-278 108 -360 409q-35 131 -28 266q44 10 81 43.5t49 94.5q241 88 260 96q36 -13 262 -96q12 -61 49 -94.5
t81 -43.5q1 -19 1 -39.5t-1.5 -54t-7 -67.5t-14 -75.5t-24 -81.5t-35.5 -82t-49.5 -81t-66 -74.5t-85.5 -66.5t-106 -53v0zM515 -71zM512 720l-91 -184l-202 -29l146 -143l-34 -202l181 95l181 -95l-34 202l146 143l-202 29zM512 720z" />
    <glyph glyph-name="heart" unicode="&#xe699;" 
d="M755 832q-76 0 -142 -52.5t-101 -126.5q-35 74 -101 126.5t-142 52.5q-111 0 -190 -79t-79 -190q0 -62 17 -116.5t48.5 -98.5t70.5 -84.5t88 -83t95.5 -84t99 -97.5t93.5 -115q39 58 90 114.5t97.5 99t96 85.5t89 84t72 85t50 97.5t17.5 113.5q0 111 -79 190t-190 79z
" />
    <glyph glyph-name="no_satisfied" unicode="&#xe7f7;" 
d="M661 491zM597 490.5q0 -26.5 19 -45t45.5 -18.5t45 18.5t18.5 45t-18.5 45.5t-45 19t-45.5 -19t-19 -45.5zM363 491zM299 490.5q0 -26.5 18.5 -45t45 -18.5t45.5 18.5t19 45t-19 45.5t-45.5 19t-45 -19t-18.5 -45.5zM512 811q-116 0 -214.5 -57.5t-155.5 -155.5t-57 -214
t57 -214t155.5 -155.5t214.5 -57.5t214 57.5t155.5 155.5t57.5 214t-57.5 214t-155.5 155.5t-214 57.5zM512 43q-93 0 -171.5 45.5t-124 124t-45.5 171.5t45.5 171.5t124 124t171.5 45.5t171.5 -45.5t124 -124t45.5 -171.5t-45.5 -171.5t-124 -124t-171.5 -45.5zM512 299
q-74 0 -133 -41.5t-85 -108.5h71q22 39 61.5 62.5t85.5 23.5t85 -23.5t62 -62.5h71q-26 67 -85 108.5t-133 41.5z" />
    <glyph glyph-name="people" unicode="&#xe60d;" 
d="M640 328q69 34 118 112.5t49 155.5q0 124 -88 212t-212 88t-211.5 -88t-87.5 -212q0 -77 48.5 -155.5t117.5 -112.5q-85 -27 -157 -94.5t-113.5 -156.5t-41.5 -178v-1q0 -10 7.5 -17.5t17.5 -8.5q11 0 18.5 7.5t7.5 18.5q1 107 54 198t144 145t198 56h1
q109 0 200.5 -53.5t145 -145.5t53.5 -200q1 -10 9 -17.5t19 -7.5v0q10 0 17.5 7.5t7.5 17.5q0 91 -43.5 180.5t-117.5 156.5t-161 93v0zM264 597q0 101 71.5 173t173 72t173.5 -72t72 -173.5t-72 -173.5t-173 -72h-1q-100 0 -170.5 71t-70.5 171v6z" />
    <glyph glyph-name="view" unicode="&#xe634;" 
d="M1015 397q-7 9 -16.5 21t-38.5 44.5t-59.5 61t-76.5 63t-92 59t-104.5 41.5t-115.5 17t-115.5 -17t-104.5 -41.5t-92 -59t-76.5 -63t-59.5 -61t-38.5 -44.5t-16.5 -21l-9 -13l9 -13q7 -9 16.5 -21t38.5 -44.5t59.5 -61t76.5 -63t92 -59t104.5 -41.5t115.5 -17t115.5 17
t104.5 41.5t92 59t76.5 63t59.5 61t38.5 44.5t16.5 21l9 13zM512 107q-64 0 -130.5 24t-115 56t-97.5 76t-72 69.5t-43 51.5q20 26 43 51.5t72 69.5t97.5 76t115 56t130.5 24t130.5 -24t115 -56t97.5 -76t72 -69.5t43 -51.5q-20 -26 -43 -51.5t-72 -69.5t-97.5 -76t-115 -56
t-130.5 -24zM512 555v0q-71 0 -121 -50t-50 -121t50 -121t121 -50t121 50t50 121t-50 121t-121 50zM512 256q-53 0 -90.5 37.5t-37.5 90.5t37.5 90.5t90.5 37.5t90.5 -37.5t37.5 -90.5t-37.5 -90.5t-90.5 -37.5z" />
    <glyph glyph-name="MedicalCare12" unicode="&#xe620;" 
d="M901 691h-778q-51 0 -87 -36t-36 -87v-573q0 -51 36 -87t87 -36h778q51 0 87 36t36 87v573q0 51 -36 87t-87 36zM983 -5q0 -34 -24 -58t-58 -24h-778q-34 0 -58 24t-24 58v573q0 34 24 58t58 24h778q34 0 58 -24t24 -58v-573zM430 486h164v-41h-164v41zM430 118h164v-41
h-164v41zM553 241h41v-164h-41v164zM430 241h41v-164h-41v164zM307 364h41v-164h-41v164zM676 364h41v-164h-41v164zM553 486h41v-163h-41v163zM430 486h41v-163h-41v163zM553 241h164v-41h-164v41zM553 364h164v-41h-164v41zM307 364h164v-41h-164v41zM307 241h164v-41
h-164v41zM307 685v88q0 17 12 29t29 12h328q17 0 29 -12t12 -29v-88h41v88q0 34 -24 58t-58 24h-328q-34 0 -58 -24t-24 -58v-88h41z" />
    <glyph glyph-name="very_satisfied" unicode="&#xea9e;" 
d="M512 811q-116 0 -214.5 -57t-155.5 -155.5t-57 -214.5t57 -214.5t155.5 -155.5t214.5 -57t214 57t155.5 155.5t57.5 214.5t-57.5 214.5t-155.5 155.5t-214 57zM512 43q-93 0 -171.5 45.5t-124 124t-45.5 171.5t45.5 171.5t124 124t171.5 45.5t171.5 -45.5t124 -124
t45.5 -171.5t-45.5 -171.5t-124 -124t-171.5 -45.5zM555 472l45 -45l45 45l45 -45l46 45l-91 90zM379 472l45 -45l45 45l-90 90l-91 -90l46 -45zM512 149q73 0 132.5 41.5t85.5 108.5h-436q26 -67 85.5 -108.5t132.5 -41.5z" />
    <glyph glyph-name="Book" unicode="&#xe65e;" 
d="M940 718q-101 73 -224 73q-114 0 -204 -56q-89 56 -203 56q-123 0 -224 -73q-8 -6 -14 -17.5t-6 -22.5v-646q0 -20 14 -34.5t35 -14.5q14 0 27 8q73 48 168 48q100 0 175 -53q13 -9 28.5 -9t28.5 9q76 53 175 53q95 0 168 -48q12 -8 27 -8q21 0 35 14.5t14 34.5v646
q0 11 -6 22.5t-14 17.5zM909 677v-640q-85 54 -193 54q-115 0 -204 -62q-88 62 -203 62h-3q-106 -1 -190 -54v640q87 62 193 62q102 0 180 -51l23 -15l24 15q78 51 180 51q105 0 193 -62zM498 649q-5 0 -5 -5v-543q0 -5 5 -5h29q5 0 5 5v543q0 5 -5 5h-29v0z" />
    <glyph glyph-name="write" unicode="&#xe66e;" 
d="M870 428v-333q0 -29 -21 -50.5t-51 -21.5h-572q-30 0 -51 21.5t-21 50.5v578q0 29 21 50.5t51 21.5h327v51h-327q-51 0 -87 -36t-36 -87v-578q0 -51 36 -87t87 -36h572q51 0 87 36t36 87v333h-51zM553 770zM528 770v0q0 -10 7.5 -17.5t18 -7.5t18 7.5t7.5 17.5v0v0
q0 11 -7.5 18.5t-18 7.5t-18 -7.5t-7.5 -18.5v0zM896 427zM870 426.5q0 -10.5 7.5 -18t18 -7.5t18 7.5t7.5 18t-7.5 18t-18 7.5t-18 -7.5t-7.5 -18zM818 516l77 77q21 21 21 50.5t-21 50.5l-72 72q-21 21 -51 21t-51 -21l-25 -25v0l-377 -377v0q-3 -4 -4 -10l-63 -192v-2
q-3 -15 8 -26q13 -13 30 -9h2l191 61q5 1 9 5l1 -1l1 2q2 1 3 3zM757 730q6 6 14.5 6t14.5 -6l73 -72q6 -6 6 -14.5t-6 -14.5l-26 -26l-101 102zM481 251l-102 101l302 302v0l15 15l101 -102zM314 186l39 120l82 -82z" />
    <glyph glyph-name="HousingDisputes11" unicode="&#xe90c;" 
d="M171 469v-298h128v298h-128zM427 469v-298h128v298h-128zM85 -43h811v128h-811v-128zM683 469v-298h128v298h-128zM491 853l-406 -213v-85h811v85z" />
    <glyph glyph-name="correct" unicode="&#xe676;" 
d="M511.5 843q-93.5 0 -178 -36.5t-146 -98t-98 -146t-36.5 -178t36.5 -178t98 -146t146 -98t178 -36.5t178 36.5t146 98t98 146t36.5 178t-36.5 178t-98 146t-146 98t-178 36.5zM410 130l-204 204l51 50l153 -152l356 356l51 -51z" />
    <glyph glyph-name="administration" unicode="&#xe608;" 
d="M923 559.5q0 40.5 -33 60.5l-327 200q-21 13 -51.5 13t-52.5 -13l-326 -200q-33 -20 -33 -60.5t33 -60.5l326 -199q23 -14 52.5 -14t52.5 14l326 199q33 20 33 60.5zM546 751q-13 8 -34.5 8t-34.5 -8l-314 -191l314 -192q13 -8 34.5 -8t34.5 8l313 192zM586.5 215.5
q8.5 27.5 41.5 32.5l88 13q6 2 9 6l33 68l-212 -130q-13 -8 -34.5 -8t-34.5 8l-308 188h-69q2 -38 33 -57l326 -199q23 -14 53 -14t52 14l41 25l-4 3q-23 23 -14.5 50.5zM852 347l13 -26l25 15q31 19 32 57h-68l-31 -19q19 -6 29 -27zM665 103l-22 21l-97 -59
q-13 -8 -34.5 -8t-34.5 8l-314 192h-63q0 -41 33 -61l326 -199q23 -14 52.5 -14t52.5 14l98 60l6 36q0 6 -3 10zM989 191q8 7 6 13.5t-12 7.5l-89 13q-10 1 -20.5 9t-14.5 17l-40 80q-4 9 -10.5 9t-11.5 -9l-39 -80q-5 -9 -15.5 -17t-20.5 -9l-89 -13q-10 -1 -12 -7.5
t6 -13.5l64 -62q7 -7 11 -19.5t2 -22.5l-15 -88q-3 -16 9 -16q4 0 9 3l79 42q9 4 22 4t22 -4l79 -42q5 -3 9 -3q11 0 9 16l-15 88q-2 10 2 22.5t11 19.5zM989 191q8 7 6 13.5t-12 7.5l-89 13q-10 1 -20.5 9t-14.5 17l-40 80q-4 9 -10.5 9t-11.5 -9l-39 -80q-5 -9 -15.5 -17
t-20.5 -9l-89 -13q-10 -1 -12 -7.5t6 -13.5l64 -62q7 -7 11 -19.5t2 -22.5l-15 -88q-3 -16 9 -16q4 0 9 3l79 42q9 4 22 4t22 -4l79 -42q5 -3 9 -3q11 0 9 16l-15 88q-2 10 2 22.5t11 19.5z" />
    <glyph glyph-name="BusinessConsulting1" unicode="&#xe622;" 
d="M945 204l-358 123q-11 3 -15 -1t1 -13l134 -332q3 -9 9 -9t11 9q34 66 62 107l88 -84q6 -6 15 -6t15 6l20 20q6 5 6 14t-6 15l-88 84q19 11 46 24t43 20l17 7q10 1 10 7t-10 9zM716 -33h-1q-9 1 -12 12l-134 332q-6 11 -1 17q6 7 20 3v0l358 -123q15 -4 14 -14
q-1 -9 -14 -11q-61 -25 -100 -47l84 -80q8 -7 8 -17.5t-8 -18.5l-20 -19q-7 -7 -18 -7t-18 7l-84 80q-31 -46 -59 -103q-6 -11 -15 -11zM579 323q-3 0 -4 -1t2 -7v0l134 -333v0q2 -5 5 -6q3 0 7 7q1 2 9.5 18.5t24.5 44t28 45.5l3 4l92 -88q5 -4 12 -4t12 4l20 20q4 4 4 11
t-4 12l-92 88l5 3q7 4 15 8.5t16 8.5t16 7.5t15 7t14 6.5t12.5 5.5t9.5 4t6 2.5l2 1h1v0q7 1 7 3t-7 4h-1l-358 123q-3 1 -6 1zM847 665q-85 79 -198 107t-226.5 0.5t-197.5 -105.5q-82 -76 -111.5 -182.5t-1 -213.5t110.5 -185q63 -60 146 -91t170 -30q13 0 21.5 11t4.5 22
l-2 6q-7 20 -28 20q-74 0 -143 25t-123 74q-72 67 -97.5 158.5t0 183t97.5 159.5q72 67 169.5 91t194 0t168.5 -91q57 -53 85 -121.5t25 -140.5q0 -9 5.5 -17t14.5 -11l10 -2q12 -3 23 5t11 21q3 84 -29.5 164.5t-98.5 142.5zM531 -40q-87 0 -168.5 32t-143.5 91t-94 138
q-31 75 -31 158q1 81 33 156q33 78 94 135q65 59 148 90q79 30 167 30q87 0 167 -31q83 -31 147 -91q65 -61 98.5 -142t30.5 -168q0 -14 -11 -24q-13 -10 -28 -6l-11 2q-10 3 -16.5 12t-6.5 20v0q3 72 -25 140t-83 118q-71 67 -167 90.5t-192 0t-167 -90.5q-53 -49 -81 -113
t-28 -135q1 -71 28.5 -134t80.5 -111q109 -99 263 -99q24 0 32 -22l2 -6q5 -13 -4 -25q-9 -14 -26 -14q-3 0 -8 -1zM535 780q-85 0 -165 -29.5t-142 -87.5q-59 -54 -91.5 -128.5t-32.5 -155.5q-1 -83 30.5 -158t91.5 -131q61 -59 143 -90.5t170 -29.5q12 0 19 10q6 8 3 17v0
l-2 6q-6 16 -24 16q-157 0 -269 101q-55 50 -84 117q-27 64 -28 135q0 70 28 136q29 68 83 119q113 104 270 104q77 0 146 -27t123 -77q58 -54 87 -125q28 -67 24 -140q0 -18 17 -23l10 -2q11 -3 20 5q8 6 8 16v0q4 85 -29.5 164.5t-96.5 139.5q-63 58 -143.5 88t-165.5 30z
M755 581q-59 55 -139 75t-159.5 1.5t-139.5 -72.5q-61 -55 -83.5 -132t-2 -154t79.5 -133q82 -75 190 -84q13 -1 22.5 9.5t5.5 24.5v5q-6 17 -24 20q-89 10 -150 66q-74 68 -73 166.5t75 166.5q73 67 176.5 66.5t175.5 -68.5q69 -64 72 -151q0 -15 20 -23l8 -2q13 -3 24 5.5
t10 21.5q-3 112 -88 192zM503 78h-3q-109 9 -192 85q-45 43 -69 99q-22 55 -22 114q1 60 25 114q25 56 71 98q93 83 221 83h2q131 -1 222 -87q86 -81 89 -194q2 -15 -9 -25q-13 -11 -30 -8v0l-9 3q-23 9 -23 27q-3 85 -70 147q-71 68 -172.5 68.5t-173.5 -66.5
q-35 -32 -54 -75t-19 -89q0 -96 71 -161q60 -56 147 -66v0q21 -3 28 -22v-1v-6q5 -14 -5 -26q-9 -12 -25 -12zM534 662q-125 0 -214 -81q-44 -39 -68.5 -92.5t-25.5 -112.5q0 -58 22.5 -112t65.5 -94q81 -74 187 -83q12 -2 20 8q7 9 3 19v1v6q-5 13 -20 15q-90 10 -152 68
q-37 33 -56 78q-18 43 -18 90q0 48 19 91q20 46 57 80q75 69 180 68.5t178 -70.5q70 -66 74 -154v0q0 -12 16 -19l8 -2q12 -3 22 6q8 7 6 16v1q-3 110 -86 188q-89 85 -218 85z" />
    <glyph glyph-name="menu" unicode="&#xe65a;" 
d="M890 409h-750q-11 0 -18.5 -7.5t-7.5 -17.5t7.5 -17.5t18.5 -7.5h750q10 0 17.5 7.5t7.5 17.5t-7.5 17.5t-17.5 7.5zM890 55h-750q-11 0 -18.5 -7.5t-7.5 -18t7.5 -18t18.5 -7.5h750q10 0 17.5 7.5t7.5 18t-7.5 18t-17.5 7.5zM140 713h750q10 0 17.5 7.5t7.5 18t-7.5 18
t-17.5 7.5h-750q-11 0 -18.5 -7.5t-7.5 -18t7.5 -18t18.5 -7.5z" />
    <glyph glyph-name="satisfied" unicode="&#xe77f;" 
d="M512 214q47 0 86 23t62 61h70q-26 -67 -85 -107.5t-133 -40.5t-133 40.5t-85 107.5h70q21 -35 64 -59.5t84 -24.5v0v0zM512 42q92 0 171 46t125 125t46 171t-46 171t-125 125t-171 46t-171 -46t-125 -125t-46 -171t46 -171t125 -125t171 -46zM512 810q116 0 214 -57
t155 -155t57 -214t-57 -214t-155 -155t-214 -57t-214 57t-155 155t-57 214t57 214t155 155t214 57zM298 490q0 27 18.5 45.5t45.5 18.5t45.5 -18.5t18.5 -45.5t-18.5 -45.5t-45.5 -18.5t-45.5 18.5t-18.5 45.5zM598 490q0 27 18.5 45.5t45.5 18.5t45.5 -18.5t18.5 -45.5
t-18.5 -45.5t-45.5 -18.5t-45.5 18.5t-18.5 45.5z" />
    <glyph glyph-name="add" unicode="&#xe64b;" 
d="M508.5 891q-103.5 0 -197.5 -40.5t-162 -108.5t-108.5 -162t-40.5 -197.5t40.5 -197.5t108.5 -162.5t162 -109t197.5 -40.5t198 40.5t162.5 109t108.5 162.5t40.5 197.5t-40.5 197.5t-108.5 162t-162.5 108.5t-198 40.5zM508.5 -54q-88.5 0 -169 35t-139 93t-93 139
t-34.5 169.5t34.5 169t93 139t139 93t169 34.5t169.5 -34.5t139 -93t92.5 -139t34.5 -169t-34.5 -169.5t-92.5 -139t-139 -93t-169.5 -35zM551 660q0 17 -11 29.5t-27 12.5t-27.5 -12.5t-11.5 -29.5v-229q0 -6 -6 -6h-216q-17 0 -29 -11.5t-12 -28t12 -28t29 -11.5h217
q5 0 5 -6v-231q0 -17 11.5 -30t27.5 -13t27.5 13t11.5 30v233q0 4 4 4h225q17 0 29 11.5t12 28t-12 28t-29 11.5h-224q-5 0 -5 8v50zM551 660z" />
    <glyph glyph-name="more" unicode="&#xe6ee;" 
d="M641 384q0 -27 18.5 -45.5t45.5 -18.5t45.5 18.5t18.5 45.5t-18.5 45.5t-45.5 18.5t-45.5 -18.5t-18.5 -45.5zM449 384q0 -27 18.5 -45.5t45 -18.5t45.5 18.5t19 45.5t-19 45.5t-45.5 18.5t-45 -18.5t-18.5 -45.5zM256 384v0q0 -27 19 -45.5t45.5 -18.5t45.5 18.5
t19 45.5v0q0 27 -19 45.5t-45.5 18.5t-45.5 -18.5t-19 -45.5zM512 -128q-104 0 -199 40.5t-163.5 109t-109 163.5t-40.5 199t40.5 199t109 163.5t163.5 109t199 40.5t199 -40.5t163.5 -109t109 -163.5t40.5 -199t-40.5 -199t-109 -163.5t-163.5 -109t-199 -40.5zM512 858
q-96 0 -184 -37.5t-151.5 -101t-101 -151.5t-37.5 -184t37.5 -184t101 -151.5t151.5 -101t184 -37.5t184 37.5t151.5 101t101 151.5t37.5 184t-37.5 184t-101 151.5t-151.5 101t-184 37.5z" />
    <glyph glyph-name="customer" unicode="&#xe694;" 
d="M745 239v0q-1 1 -10 5q-3 2 -7 3q-10 5 -21 9q-1 1 -4 2q-39 15 -82 23q-6 19 -8 40q47 5 94 24q20 8 16 13q-6 7 -10 15.5t-5.5 19.5t-3 18t0 21t2 19t2.5 20.5t2 16.5q2 13 5.5 37.5t5 34.5t2.5 30t-1 34t-6.5 34t-13.5 43q-20 56 -74.5 95t-122.5 34q-50 -3 -102 -38
q-62 -7 -98 -59.5t-32 -141.5q1 -21 10 -53.5t15.5 -57.5t4 -58t-20.5 -62q-4 -7 18 -20t55.5 -22.5t57.5 -6.5q-1 -15 -4 -27q-51 -8 -97 -26q-1 0 -4 -2q-10 -3 -22 -9l-6 -3q-10 -4 -10 -5v0q-53 -28 -83 -65.5t-30 -80.5v-156h3v-1h690q2 0 4 7t3 7v143q0 43 -30 80.5
t-83 65.5zM520 796q50 -6 87.5 -40.5t52.5 -85.5q-22 37 -58.5 61.5t-81.5 30.5q-55 7 -104 -16t-78 -68q22 59 72.5 92.5t109.5 25.5zM405 392q-3 4 -4 5q-29 36 -43 74q-5 44 0 81q10 77 65 132q10 -25 28 -46q37 -46 91 -56q-37 23 -63 62q-6 10 -12 19q8 -9 19 -18
q53 -47 145 -69q-47 28 -81 63q23 -12 36.5 -20t31.5 -25t32 -40l1 -2q-3 -40 -25 -73t-57 -51q-10 15 -32 14q-15 0 -25 -7.5t-10 -18.5t10.5 -18.5t25 -7.5t25 7.5t10.5 18.5q0 3 -1 5q71 35 85 116l1 -1q4 -17 4 -43q-13 -49 -49 -97q-1 0 -2 -1.5t-2 -2.5
q0 -1 -0.5 -1.5l-1 -1t-1.5 -2.5q-47 -56 -86 -65q-6 -2 -12 -2q-2 0 -5 1q-38 7 -86 58q-6 7 -12 13zM641 239l-2 -2t-2 -3q-76 -79 -129 -79q-52 0 -123 73l-5 5q-5 6 -14.5 16t-13.5 14q26 6 55 11q3 0 8 1l1 3q0 3 1 3v2v2v0q3 15 4 33q1 24 -3 50q34 -34 66 -48
q13 -6 24 -7h2q13 0 31 9q31 17 64 54q-1 -10 -0.5 -21t0.5 -20.5v-9.5l1 -8t3.5 -18.5t3.5 -15.5v-1l0.5 -1l1 -2t0.5 -2t0.5 -1.5t0.5 -1.5v-1l3.5 -0.5t4.5 -1.5q20 -3 39 -8q-3 -4 -11 -12.5t-11 -11.5z" />
    <glyph glyph-name="like" unicode="&#xe603;" 
d="M828 507q-18 5 -36 5q-1 0 -3 -1l-99 1q14 66 14 192q0 44 -31.5 75.5t-75.5 31.5t-75 -31.5t-31 -75.5v-21q0 -89 -62.5 -151.5t-151.5 -62.5h-106q-36 0 -61 -25t-25 -60v-341q0 -36 25 -61t61 -25h106v0q9 0 15.5 6.5t6.5 15.5v449q98 8 166 81.5t68 173.5v21
q0 26 19 45t45.5 19t45 -19t18.5 -45q0 -153 -20 -206q-1 -3 -1 -7q0 -9 6 -15.5t15 -6.5h128q16 0 28 -3q33 -9 56 -39.5t23 -63.5q0 -14 -4 -28q-17 -65 -112 -304q-8 -13 -23.5 -22t-30.5 -9h-1v0h-4h-316q-8 0 -14.5 -6.5t-6.5 -15t6.5 -15t14.5 -6.5h320q2 0 5 1
q24 1 49.5 16.5t38.5 36.5q0 1 1 2q97 245 115 311q5 19 5 39q0 47 -32.5 89.5t-78.5 54.5zM256 0h-85q-18 0 -30.5 12.5t-12.5 30.5v341q0 18 12.5 30.5t30.5 12.5h85v-427v0z" />
    <glyph glyph-name="send" unicode="&#xe780;" 
d="M626 -27l-141 122l-30 -122l-58 219l286 329l-386 -264l-242 209l914 330z" />
    <glyph glyph-name="robot" unicode="&#xe72a;" 
d="M514 776v0q32 0 54 -22t22 -54v0q0 -44 -38 -66v-48h38v0q111 0 189 -78.5t78 -188.5h38q16 0 27.5 -11.5t11.5 -26.5v-115v0q0 -16 -11.5 -27t-27.5 -11h-38v-38q0 -32 -22 -54t-54 -22h-534v0q-31 0 -53.5 22t-22.5 54v38h-38v0q-16 0 -27 11t-11 27v115q0 15 11 26.5
t27 11.5h38q0 110 78 188.5t189 78.5h38v48q-16 9 -27 28.5t-11 37.5v0v0q0 32 22.5 54t53.5 22v0v0zM343 357v0q-40 0 -68 -28t-28 -67v0q0 -40 28 -68t68 -28v0q39 0 67 28t28 67.5t-28 67.5t-67 28v0zM686 357v0q-40 0 -68 -28t-28 -67.5t28 -67.5t68 -28v0q39 0 67 28
t28 68v0q0 39 -28 67t-67 28v0z" />
  </font>
</defs>
</svg>
